Jump_normalized_Precision Landing05_filtered_grf
version=1
nRows=15
nColumns=37
inDegrees=yes
endheader
time		1_ground_force_vx		1_ground_force_vy		1_ground_force_vz		1_ground_force_px		1_ground_force_py		1_ground_force_pz		1_ground_torque_x		1_ground_torque_y		1_ground_torque_z		2_ground_force_vx		2_ground_force_vy		2_ground_force_vz		2_ground_force_px		2_ground_force_py		2_ground_force_pz		2_ground_torque_x		2_ground_torque_y		2_ground_torque_z		3_ground_force_vx		3_ground_force_vy		3_ground_force_vz		3_ground_force_px		3_ground_force_py		3_ground_force_pz		3_ground_torque_x		3_ground_torque_y		3_ground_torque_z		4_ground_force_vx		4_ground_force_vy		4_ground_force_vz		4_ground_force_px		4_ground_force_py		4_ground_force_pz		4_ground_torque_x		4_ground_torque_y		4_ground_torque_z		
0.696167		-0.000000		0.000000		0.000000		0.085807		0.000000		0.311172		0.000000		0.000000		-0.000000		0.000000		0.000000		0.000000		-0.174735		0.000000		0.224768		0.000000		-0.000000		0.000000		-28.318577		517.503003		69.753124		0.352367		1.254990		1.893440		1.325247		-24.217995		-3.264292		11.558415		418.434361		22.441227		-0.289439		1.264051		1.902952		0.691919		25.048675		1.343395		
0.700308		-0.000000		-0.000000		-0.000000		0.085807		0.000000		0.311172		-0.000000		0.000000		0.000000		0.000000		-0.000000		0.000000		-0.174735		0.000000		0.224768		-0.000000		-0.000000		-0.000000		-28.689845		516.482098		67.680828		0.352388		1.254994		1.893496		1.342527		-24.168523		-3.167091		11.289612		412.022496		20.447824		-0.289450		1.264065		1.903008		0.678014		24.744619		1.228023		
0.704449		-0.000000		-0.000000		-0.000000		0.085807		0.000000		0.311172		-0.000000		-0.000000		0.000000		-0.000000		-0.000000		-0.000000		-0.174735		0.000000		0.224768		-0.000000		0.000000		-0.000000		-29.175168		515.740177		65.419186		0.352394		1.254997		1.893557		1.365349		-24.135783		-3.061509		11.070371		405.826323		18.429864		-0.289461		1.264080		1.903070		0.667047		24.453131		1.110494		
0.708591		0.000000		-0.000000		-0.000000		0.085807		0.000000		0.311172		-0.000000		-0.000000		0.000000		-0.000000		-0.000000		-0.000000		-0.174735		0.000000		0.224768		-0.000000		0.000000		-0.000000		-29.779419		515.196861		63.017186		0.352385		1.254998		1.893614		1.393933		-24.115631		-2.949745		10.862734		399.974768		16.443793		-0.289465		1.264094		1.903131		0.656499		24.172831		0.993795		
0.712732		0.000000		-0.000000		-0.000000		0.085807		0.000000		0.311172		-0.000000		-0.000000		-0.000000		-0.000000		-0.000000		-0.000000		-0.174735		0.000000		0.224768		-0.000000		0.000000		-0.000000		-30.509416		514.870234		60.508420		0.352366		1.254996		1.893660		1.428164		-24.101376		-2.832434		10.670970		394.606833		14.554561		-0.289464		1.264108		1.903182		0.646488		23.906781		0.881770		
0.716874		0.000000		0.000000		0.000000		0.085807		0.000000		0.311172		0.000000		0.000000		-0.000000		-0.000000		0.000000		-0.000000		-0.174735		0.000000		0.224768		0.000000		0.000000		0.000000		-31.355208		514.831397		57.895671		0.352348		1.254991		1.893694		1.466931		-24.086016		-2.708607		10.543177		389.874164		12.820904		-0.289464		1.264120		1.903216		0.639982		23.665774		0.778242		
0.721015		0.000000		0.000000		0.000000		0.085807		0.000000		0.311172		0.000000		0.000000		-0.000000		0.000000		0.000000		0.000000		-0.174735		0.000000		0.224768		0.000000		-0.000000		0.000000		-32.269531		515.098303		55.204832		0.352337		1.254987		1.893724		1.507719		-24.066781		-2.579318		10.540443		385.931874		11.255806		-0.289470		1.264127		1.903237		0.640904		23.466301		0.684401		
0.725157		-0.000000		0.000000		0.000000		0.085807		0.000000		0.311172		0.000000		0.000000		-0.000000		0.000000		0.000000		0.000000		-0.174735		0.000000		0.224768		0.000000		-0.000000		0.000000		-33.170130		515.551967		52.503205		0.352336		1.254986		1.893754		1.547163		-24.047019		-2.448920		10.693238		382.905560		9.847373		-0.289485		1.264131		1.903255		0.651434		23.326680		0.599904		
0.729298		-0.000000		-0.000000		0.000000		0.085807		0.000000		0.311172		0.000000		0.000000		0.000000		0.000000		0.000000		0.000000		-0.174735		0.000000		0.224768		0.000000		-0.000000		0.000000		-33.992370		515.929235		49.849221		0.352350		1.254989		1.893779		1.583253		-24.030286		-2.321813		10.981863		380.837633		8.579159		-0.289499		1.264131		1.903280		0.670743		23.260542		0.523991		
0.733439		-0.000000		-0.000000		-0.000000		0.085807		0.000000		0.311172		-0.000000		-0.000000		0.000000		0.000000		-0.000000		0.000000		-0.174735		0.000000		0.224768		-0.000000		-0.000000		-0.000000		-34.736577		515.898878		47.255642		0.352376		1.254993		1.893790		1.616720		-24.011117		-2.199386		11.371980		379.698342		7.406301		-0.289506		1.264130		1.903314		0.697013		23.272505		0.453947		
0.737581		-0.000000		-0.000000		-0.000000		0.085807		0.000000		0.311172		-0.000000		-0.000000		0.000000		-0.000000		-0.000000		-0.000000		-0.174735		0.000000		0.224768		-0.000000		0.000000		-0.000000		-35.458892		515.159537		44.659099		0.352404		1.254995		1.893786		1.649979		-23.971487		-2.078084		11.855704		379.470108		6.232605		-0.289503		1.264127		1.903353		0.729818		23.359566		0.383668		
0.741722		0.000000		-0.000000		-0.000000		0.085807		0.000000		0.311172		-0.000000		-0.000000		0.000000		-0.000000		-0.000000		-0.000000		-0.174735		0.000000		0.224768		-0.000000		0.000000		-0.000000		-36.204321		513.506236		41.967115		0.352426		1.254994		1.893772		1.684237		-23.888477		-1.952324		12.435844		380.215609		4.890520		-0.289493		1.264123		1.903390		0.769186		23.517219		0.302488		
0.745864		0.000000		0.000000		-0.000000		0.085807		0.000000		0.311172		0.000000		-0.000000		-0.000000		-0.000000		-0.000000		-0.000000		-0.174735		0.000000		0.224768		-0.000000		0.000000		-0.000000		-36.950235		510.858132		39.153551		0.352434		1.254989		1.893761		1.717751		-23.748888		-1.820180		13.071562		382.020539		3.170661		-0.289483		1.264117		1.903421		0.812418		23.743152		0.197060		
0.750005		0.000000		0.000000		0.000000		0.085807		0.000000		0.311172		0.000000		0.000000		-0.000000		0.000000		0.000000		0.000000		-0.174735		0.000000		0.224768		0.000000		-0.000000		0.000000		-37.611478		507.271629		36.273102		0.352430		1.254983		1.893757		1.746670		-23.557601		-1.684516		13.658759		384.836279		0.904518		-0.289477		1.264112		1.903449		0.853070		24.035284		0.056492		
0.754146		0.000000		0.000000		0.000000		0.085807		0.000000		0.311172		0.000000		0.000000		-0.000000		0.000000		0.000000		0.000000		-0.174735		0.000000		0.224768		0.000000		-0.000000		0.000000		-38.084068		502.935819		33.448026		0.352418		1.254980		1.893764		1.766943		-23.334137		-1.551850		14.073740		388.350921		-1.943112		-0.289478		1.264108		1.903477		0.883749		24.386156		-0.122019		
